<?xml version="1.0" encoding="utf-8"?>
<!-- Generator: Adobe Illustrator 25.2.1, SVG Export Plug-In . SVG Version: 6.00 Build 0)  -->
<svg version="1.1" id="레이어_1" xmlns="http://www.w3.org/2000/svg" xmlns:xlink="http://www.w3.org/1999/xlink" x="0px"
	 y="0px" viewBox="0 0 27 27" style="enable-background:new 0 0 27 27;" xml:space="preserve">
<style type="text/css">
	.st0{fill:#9FA0A0;}
	.st1{fill:#FFFFFF;}
</style>
<g>
	<circle className="st0" cx="13.5" cy="13.5" r="13.5"/>
	<g>
		<g>
			<path className="st1" d="M20.9,10.1c-0.3-1.2-0.8-1.6-1.8-1.8c-0.6-0.1-3.4-0.2-5.6-0.2c-2.2,0-5,0.1-5.6,0.2c-1,0.2-1.5,0.6-1.8,1.8
				c-0.1,0.4-0.2,2.5-0.2,3.3v0.2c0,0.8,0.1,3,0.2,3.3c0.3,1.2,0.8,1.6,1.8,1.8c0.6,0.1,3.4,0.2,5.6,0.2h0c2.2,0,5-0.1,5.6-0.2
				c1-0.2,1.5-0.6,1.8-1.8c0.1-0.4,0.2-2.5,0.2-3.3v-0.2C21.1,12.6,21,10.5,20.9,10.1z M11.1,16v-5l5.1,2.4L11.1,16z"/>
		</g>
	</g>
</g>
</svg>
