<?xml version="1.0" encoding="utf-8"?>
<!-- Generator: Adobe Illustrator 25.2.1, SVG Export Plug-In . SVG Version: 6.00 Build 0)  -->
<svg version="1.1" id="레이어_1" xmlns="http://www.w3.org/2000/svg" xmlns:xlink="http://www.w3.org/1999/xlink" x="0px"
	 y="0px" viewBox="0 0 28 28" style="enable-background:new 0 0 28 28;" xml:space="preserve">
<style type="text/css">
	.st0{fill:#9FA0A0;}
	.st1{fill:#FFFFFF;}
</style>
<g>
	<circle class="st0" cx="14" cy="14" r="14"/>
	<g>
		<g>
			<path class="st1" d="M21.5,10.5c-0.3-1.2-0.8-1.6-1.9-1.8C19,8.6,16.2,8.5,14,8.5c-2.2,0-5,0.1-5.6,0.2c-1,0.2-1.6,0.6-1.9,1.8
				c-0.1,0.4-0.2,2.6-0.2,3.4v0.2c0,0.8,0.1,3,0.2,3.4c0.3,1.2,0.8,1.6,1.9,1.8c0.6,0.1,3.4,0.2,5.6,0.2h0c2.2,0,5-0.1,5.6-0.2
				c1-0.2,1.6-0.6,1.9-1.8c0.1-0.4,0.2-2.6,0.2-3.4v-0.2C21.7,13.1,21.6,10.9,21.5,10.5z M11.6,16.5v-5l5.2,2.4L11.6,16.5z"/>
		</g>
	</g>
</g>
</svg>
