<?xml version="1.0" encoding="utf-8"?>
<!-- Generator: Adobe Illustrator 25.2.1, SVG Export Plug-In . SVG Version: 6.00 Build 0)  -->
<svg version="1.1" id="레이어_1" xmlns="http://www.w3.org/2000/svg" xmlns:xlink="http://www.w3.org/1999/xlink" x="0px"
	 y="0px" viewBox="0 0 335 65" style="enable-background:new 0 0 335 65;" xml:space="preserve">
<style type="text/css">
	.st0{fill:#67A8B1;}
	.st1{fill:#FFFFFF;}
</style>
<g>
	<g>
		<path class="st0" d="M46.3,37.5l-2.6,1.3c1.3,2.2,1.9,4.2,2.2,5.8c0.2,1.6,0.2,2,0.2,3.2c0,5.9-4.8,10.6-10.6,10.6H16.7v6.5h19.4
			c6.5-0.4,10.5-3.5,12.8-6.5c2.5-3.3,3.1-6.7,3.1-6.7c2.2-10.5-3-15.7-3-15.7L46.3,37.5z"/>
		<path class="st0" d="M21.8,25.1L8.3,18.2l-1.7-0.9l-0.3-0.1l-0.4-0.2L4,16c-1.5-0.7-2.2,0-2.2,0C1,16.7,1,18.1,1,18.1v0.8v2.5
			v21.8v1V48v1.4v2h6.5v-2v-5.2v-3.9v-3.1v-5v-3.4v-0.2v-0.4V27v-0.2v-0.1v-0.2c0-0.2,0.1-0.7,0.4-0.9c0,0,0.3-0.1,1,0.2l1.2,0.6
			l0.3,0.2l1.1,0.5l0.8,0.4l4.4,2.2l5.8,3l0.7,0.4v-0.8V27v-1.2L21.8,25.1z"/>
		<path class="st0" d="M65.8,16c0,0-0.6-0.6-1.9-0.1L34.6,30.7c0,0-0.5,0.3-0.7,0.3c-0.2,0-0.7-0.2-0.7-0.2L27,27.7v4.5v2.4V35
			l4.3,2.2c0.7,0.4,1.5,0.7,2.5,0.8c0.4,0.1,0.8-0.1,1.2-0.2c0.3-0.1,0.5-0.2,0.8-0.4l0.4-0.2l4.7-2.4l4.1-2.1l0,0l8.1-4.1l2.2-1.1
			l0.8-0.4l0.9-0.4l0.2-0.1l0.3-0.2l1.2-0.6c0.7-0.3,1-0.2,1-0.2c0.3,0.2,0.4,0.6,0.4,0.9v0.2v0.1V27v1.2v0.4v0.2v2.5v0.9v1.4v3.6
			v3.1v3.9v5.2v2h6.5v-2V48v-3.8v-1v-9.6v-2.3v-9.6v-0.4v-2.5v-0.8C66.6,18.1,66.6,16.7,65.8,16z"/>
		<path class="st0" d="M52.5,15.3c-0.1-0.2-0.1-0.4-0.1-0.5c0-0.1,0-0.2,0-0.2C51.8,6.1,44.8-0.6,36.1-0.6h-7.6h-5.2H21
			c-2.3,0-4.2,1.9-4.2,4.2v2.2v2.9v8.5v5.3v7.3v2.5v5v3.3v2.7v9.4H19h0.4c0.6,0,1.8-0.1,2.8-0.4c1-0.4,1-1.7,1-1.9v0v-2.8v-0.3v-3.3
			v-3.3v-3.3v-0.7v-3.4v-7.3v-1.7v-7V8.6V5.8h5h7.1c5.6,0,10.3,4.4,10.5,10.1c0.1,0.4,0,0.8,0,1.3c-0.2,6.5-4.1,9.7-6.1,10.9
			l12.5-6.4C52.7,19.2,52.6,16.5,52.5,15.3z"/>
	</g>
	<g>
		<g>
			<g>
				<path class="st1" d="M83,54.3v1h-1.9V43.6h2v4c0.1-0.2,0.3-0.4,0.5-0.5c0.2-0.1,0.4-0.2,0.6-0.3c0.2-0.1,0.4-0.1,0.6-0.2
					c0.2,0,0.4,0,0.6,0c0.5,0,1,0.1,1.5,0.3c0.4,0.2,0.8,0.4,1,0.7c0.3,0.3,0.5,0.7,0.6,1.2c0.1,0.4,0.2,0.9,0.2,1.5v1.5
					c0,0.6-0.1,1.1-0.2,1.6c-0.2,0.5-0.4,0.8-0.7,1.2c-0.3,0.3-0.7,0.6-1.1,0.7c-0.4,0.2-0.9,0.3-1.4,0.3c-0.6,0-1-0.1-1.4-0.3
					C83.5,54.9,83.2,54.7,83,54.3L83,54.3z M86.8,50.6c0-0.7-0.1-1.3-0.4-1.7c-0.3-0.4-0.7-0.6-1.4-0.6c-0.7,0-1.1,0.2-1.5,0.6
					c-0.3,0.4-0.5,0.9-0.5,1.5v1.8c0,0.2,0.1,0.4,0.2,0.6c0.1,0.2,0.2,0.4,0.4,0.5c0.2,0.2,0.4,0.3,0.6,0.4c0.2,0.1,0.5,0.2,0.8,0.2
					c0.6,0,1-0.2,1.3-0.6c0.3-0.4,0.4-1,0.4-1.7V50.6z"/>
				<path class="st1" d="M93.1,55.5c-0.9,0-1.6-0.2-2.1-0.6c-0.5-0.4-0.8-1-0.8-1.8v-0.5c0-0.4,0.1-0.7,0.2-1
					c0.1-0.3,0.3-0.6,0.5-0.8c0.3-0.2,0.6-0.4,1-0.5c0.4-0.1,0.9-0.2,1.5-0.2h2v-0.3c0-0.5-0.1-0.9-0.4-1.1
					c-0.2-0.2-0.6-0.3-1.2-0.3c-0.9,0-1.7,0.3-2.4,0.9l-1-1.4c0.4-0.3,0.9-0.6,1.5-0.8c0.5-0.2,1.2-0.4,1.9-0.4c0.5,0,1,0.1,1.4,0.2
					c0.4,0.1,0.8,0.3,1.1,0.5c0.3,0.2,0.5,0.5,0.7,0.9c0.2,0.3,0.3,0.7,0.3,1.2v6h-1.8l0-1.1c-0.1,0.2-0.2,0.4-0.4,0.5
					c-0.2,0.2-0.4,0.3-0.6,0.4c-0.2,0.1-0.5,0.2-0.7,0.2C93.6,55.4,93.3,55.5,93.1,55.5z M95.4,51.7h-1.9c-0.5,0-0.9,0.1-1.1,0.3
					c-0.2,0.2-0.3,0.5-0.3,0.8v0.2c0,0.3,0.1,0.5,0.3,0.7c0.2,0.2,0.5,0.2,0.9,0.2c0.8,0,1.4-0.2,1.8-0.6c0.2-0.2,0.3-0.4,0.3-0.6
					c0-0.2,0-0.5,0-0.8V51.7z"/>
				<path class="st1" d="M104.5,48.5c-0.1-0.1-0.3-0.1-0.5-0.1c-0.2,0-0.4,0-0.6,0c-0.3,0-0.5,0-0.8,0.1c-0.2,0.1-0.4,0.2-0.6,0.4
					c-0.2,0.2-0.3,0.4-0.4,0.6c-0.1,0.2-0.1,0.5-0.1,0.8v5.1h-2v-8.6h1.9V48h0c0.2-0.4,0.5-0.8,0.9-1c0.4-0.3,0.9-0.4,1.5-0.4
					c0.2,0,0.4,0,0.7,0c0.2,0,0.4,0.1,0.6,0.1L104.5,48.5z"/>
				<path class="st1" d="M109.3,55.5c-0.9,0-1.6-0.3-2.2-0.8c-0.5-0.5-0.8-1.3-0.8-2.4v-5.5h2v5.1c0,0.4,0,0.7,0.1,0.9
					c0.1,0.2,0.2,0.4,0.3,0.6c0.1,0.1,0.3,0.2,0.5,0.3c0.2,0.1,0.4,0.1,0.6,0.1c0.2,0,0.4,0,0.6-0.1c0.2-0.1,0.4-0.2,0.6-0.3
					c0.2-0.2,0.3-0.4,0.4-0.6c0.1-0.3,0.2-0.6,0.2-1v-5h2v8.6h-1.9v-1h0c-0.1,0.2-0.3,0.4-0.5,0.5c-0.2,0.1-0.4,0.3-0.6,0.4
					c-0.2,0.1-0.5,0.2-0.7,0.2C109.7,55.5,109.5,55.5,109.3,55.5z"/>
				<path class="st1" d="M120.4,46.6c0.4,0,0.8,0.1,1.1,0.2c0.4,0.1,0.7,0.3,1,0.6c0.3,0.3,0.5,0.6,0.7,1c0.2,0.4,0.2,0.9,0.2,1.5
					v5.6h-2v-5.2c0-1.3-0.5-1.9-1.6-1.9c-0.2,0-0.3,0-0.6,0.1c-0.2,0-0.4,0.1-0.6,0.3c-0.2,0.1-0.4,0.3-0.5,0.6
					c-0.1,0.3-0.2,0.6-0.2,1v5.1h-2v-8.6h1.8v1h0c0.3-0.4,0.7-0.7,1.1-0.9C119.4,46.7,119.9,46.6,120.4,46.6z"/>
				<path class="st1" d="M134.8,46.6c0.4,0,0.8,0.1,1.1,0.2c0.4,0.1,0.7,0.3,0.9,0.6c0.3,0.3,0.5,0.6,0.6,1c0.2,0.4,0.2,0.9,0.2,1.4
					v5.5h-2v-5.1c0-0.4,0-0.7-0.1-0.9c-0.1-0.2-0.2-0.4-0.3-0.6c-0.1-0.1-0.3-0.2-0.5-0.3c-0.2-0.1-0.4-0.1-0.6-0.1
					c-0.2,0-0.4,0-0.6,0.1c-0.2,0.1-0.4,0.2-0.5,0.3c-0.1,0.1-0.3,0.3-0.4,0.6c-0.1,0.2-0.1,0.5-0.1,0.9v5.2h-2v-5.1
					c0-0.4,0-0.7-0.1-0.9c-0.1-0.2-0.2-0.4-0.3-0.6c-0.1-0.1-0.3-0.2-0.5-0.3c-0.2-0.1-0.4-0.1-0.6-0.1c-0.5,0-0.8,0.1-1.1,0.4
					c-0.3,0.3-0.4,0.7-0.4,1.3v5.3h-2v-8.6h1.8v1.1h0c0.2-0.4,0.5-0.7,0.9-0.9c0.4-0.2,0.9-0.3,1.4-0.3c0.5,0,1,0.1,1.4,0.4
					c0.4,0.2,0.7,0.6,0.9,0.9c0.3-0.4,0.7-0.8,1.1-1C133.6,46.7,134.2,46.6,134.8,46.6z"/>
				<path class="st1" d="M140,43.4h2.1v2.1H140V43.4z M140.1,46.8h2v8.6h-2V46.8z"/>
			</g>
			<g>
				<g>
					<path class="st1" d="M155.2,44.2v1.6H150v3h4.9v1.6H150v3.3h5.3v1.6H148V44.2H155.2z"/>
					<path class="st1" d="M157.4,44.2h2.3l3.8,6.8c0.1,0.2,0.2,0.5,0.4,0.8c0.1,0.3,0.3,0.6,0.3,1v-8.6h1.9v11.2h-2.3l-3.8-6.8
						c-0.1-0.2-0.3-0.5-0.4-0.8c-0.1-0.3-0.2-0.6-0.3-0.9v8.5h-1.9V44.2z"/>
					<path class="st1" d="M176.1,44.2v1.7h-3.3v9.5h-2v-9.5h-3.3v-1.7H176.1z"/>
				</g>
				<g>
					<path class="st1" d="M185.5,55.3c-0.5,0-1-0.1-1.3-0.3c-0.4-0.2-0.7-0.4-0.9-0.7v4.2h-2V46.6h1.9v0.9c0.1-0.2,0.3-0.4,0.5-0.5
						c0.2-0.1,0.4-0.3,0.6-0.3c0.2-0.1,0.4-0.1,0.7-0.2c0.2,0,0.4-0.1,0.6-0.1c0.6,0,1,0.1,1.5,0.3c0.4,0.2,0.8,0.4,1,0.7
						c0.3,0.3,0.5,0.7,0.6,1.2c0.1,0.5,0.2,1,0.2,1.5v1.5c0,0.6-0.1,1.1-0.2,1.6c-0.2,0.5-0.4,0.8-0.7,1.2c-0.3,0.3-0.7,0.6-1.1,0.7
						C186.5,55.2,186,55.3,185.5,55.3z M187,50.4c0-0.7-0.1-1.3-0.4-1.7c-0.3-0.4-0.7-0.6-1.4-0.6c-0.7,0-1.1,0.2-1.5,0.6
						c-0.3,0.4-0.5,0.9-0.5,1.5v1.8c0,0.2,0.1,0.4,0.2,0.6c0.1,0.2,0.2,0.4,0.4,0.5c0.2,0.2,0.4,0.3,0.6,0.4
						c0.2,0.1,0.5,0.2,0.8,0.2c0.6,0,1-0.2,1.3-0.6c0.3-0.4,0.4-1,0.4-1.7V50.4z"/>
					<path class="st1" d="M190.8,43.4h2v11.7h-2V43.4z"/>
					<path class="st1" d="M197.6,55.3c-0.9,0-1.6-0.2-2.1-0.6c-0.5-0.4-0.8-1-0.8-1.8v-0.5c0-0.4,0.1-0.7,0.2-1
						c0.1-0.3,0.3-0.6,0.5-0.8c0.3-0.2,0.6-0.4,1-0.5c0.4-0.1,0.9-0.2,1.5-0.2h2v-0.3c0-0.5-0.1-0.9-0.4-1.1
						c-0.2-0.2-0.6-0.3-1.2-0.3c-0.9,0-1.7,0.3-2.4,0.9l-1-1.4c0.4-0.3,0.9-0.6,1.5-0.8c0.5-0.2,1.2-0.4,1.9-0.4
						c0.5,0,1,0.1,1.4,0.2c0.4,0.1,0.8,0.3,1.1,0.5c0.3,0.2,0.5,0.5,0.7,0.9c0.2,0.3,0.3,0.7,0.3,1.2v6h-1.8l0-1.1
						c-0.1,0.2-0.2,0.4-0.4,0.5c-0.2,0.2-0.4,0.3-0.6,0.4c-0.2,0.1-0.5,0.2-0.7,0.2C198.1,55.3,197.8,55.3,197.6,55.3z M199.9,51.5
						H198c-0.5,0-0.9,0.1-1.1,0.3c-0.2,0.2-0.3,0.5-0.3,0.8v0.2c0,0.3,0.1,0.5,0.3,0.7c0.2,0.2,0.5,0.2,0.9,0.2
						c0.8,0,1.4-0.2,1.8-0.6c0.2-0.2,0.3-0.4,0.3-0.6c0-0.2,0-0.5,0-0.8V51.5z"/>
					<path class="st1" d="M206.9,53.6c0.4,0,0.8-0.1,1.1-0.2c0.3-0.1,0.4-0.3,0.4-0.7v-0.1c0-0.1,0-0.3-0.1-0.4
						c0-0.1-0.1-0.2-0.2-0.3c-0.1-0.1-0.3-0.1-0.5-0.2c-0.2-0.1-0.6-0.1-1-0.2c-0.5-0.1-1-0.2-1.3-0.4c-0.4-0.1-0.7-0.3-0.9-0.5
						c-0.2-0.2-0.4-0.5-0.5-0.7c-0.1-0.3-0.2-0.6-0.2-1v-0.2c0-0.3,0.1-0.6,0.2-0.9c0.1-0.3,0.3-0.5,0.6-0.8c0.3-0.2,0.6-0.4,1-0.6
						c0.4-0.1,0.9-0.2,1.5-0.2c0.5,0,1,0,1.6,0.1c0.6,0.1,1.1,0.3,1.6,0.6l-0.8,1.4c-0.3-0.2-0.6-0.3-1-0.4
						c-0.4-0.1-0.7-0.1-1.1-0.1c-0.6,0-1,0.1-1.3,0.2c-0.2,0.1-0.3,0.3-0.3,0.6v0.1c0,0.2,0,0.3,0.1,0.4c0,0.1,0.1,0.2,0.2,0.2
						c0.1,0.1,0.3,0.1,0.5,0.2c0.2,0.1,0.5,0.1,0.8,0.2c0.5,0.1,1,0.2,1.4,0.4c0.4,0.1,0.7,0.3,1,0.5c0.3,0.2,0.4,0.5,0.6,0.8
						c0.1,0.3,0.2,0.7,0.2,1.1v0.2c0,0.3-0.1,0.6-0.2,0.9c-0.2,0.3-0.4,0.6-0.7,0.8c-0.3,0.2-0.6,0.4-1.1,0.5
						c-0.4,0.1-0.9,0.2-1.4,0.2c-0.7,0-1.4-0.1-2-0.3c-0.6-0.2-1.2-0.4-1.6-0.8l0.9-1.5c0.4,0.3,0.8,0.5,1.2,0.6
						C205.8,53.6,206.3,53.6,206.9,53.6z"/>
					<path class="st1" d="M212.5,48.2h-1.4v-1.6h1.4v-2.2h2v2.2h2.2v1.6h-2.2v4.5c0,0.4,0.1,0.6,0.2,0.7c0.1,0.1,0.4,0.2,0.6,0.2
						c0.2,0,0.4,0,0.6-0.1c0.2,0,0.4-0.1,0.6-0.2l0.3,1.6c-0.2,0.1-0.4,0.2-0.7,0.2c-0.3,0.1-0.7,0.1-1,0.1c-0.5,0-0.9-0.1-1.2-0.2
						c-0.3-0.1-0.6-0.3-0.8-0.5c-0.2-0.2-0.3-0.5-0.4-0.8c-0.1-0.3-0.1-0.7-0.1-1.1V48.2z"/>
					<path class="st1" d="M218.4,43.2h2.1v2.1h-2.1V43.2z M218.5,46.6h2v8.6h-2V46.6z"/>
					<path class="st1" d="M226.2,46.4c0.4,0,0.8,0,1.1,0.1c0.3,0.1,0.6,0.1,0.8,0.2c0.2,0.1,0.5,0.2,0.7,0.3
						c0.2,0.1,0.4,0.2,0.5,0.4l-0.9,1.4c-0.4-0.3-0.7-0.5-1-0.6c-0.3-0.1-0.7-0.2-1.1-0.2c-0.2,0-0.5,0-0.7,0.1
						c-0.2,0.1-0.4,0.2-0.6,0.4c-0.2,0.2-0.3,0.4-0.4,0.7c-0.1,0.3-0.2,0.6-0.2,1v1c0,0.4,0.1,0.8,0.2,1.1c0.1,0.3,0.3,0.5,0.5,0.7
						c0.2,0.2,0.4,0.3,0.6,0.4c0.2,0.1,0.5,0.1,0.7,0.1c0.5,0,1-0.1,1.3-0.2c0.4-0.1,0.7-0.3,1-0.5l0.9,1.4
						c-0.3,0.3-0.7,0.5-1.3,0.7c-0.6,0.2-1.2,0.3-2,0.3c-1.3,0-2.2-0.4-2.9-1c-0.7-0.7-1-1.7-1-2.9v-1.1c0-1.2,0.3-2.2,1-2.9
						C224.1,46.8,225,46.4,226.2,46.4z"/>
					<path class="st1" d="M237.7,53.6c0.4,0,0.8-0.1,1.1-0.2c0.3-0.1,0.4-0.3,0.4-0.7v-0.1c0-0.1,0-0.3-0.1-0.4
						c0-0.1-0.1-0.2-0.2-0.3s-0.3-0.1-0.5-0.2c-0.2-0.1-0.6-0.1-1-0.2c-0.5-0.1-1-0.2-1.3-0.4c-0.4-0.1-0.7-0.3-0.9-0.5
						c-0.2-0.2-0.4-0.5-0.5-0.7c-0.1-0.3-0.2-0.6-0.2-1v-0.2c0-0.3,0.1-0.6,0.2-0.9c0.1-0.3,0.3-0.5,0.6-0.8c0.3-0.2,0.6-0.4,1-0.6
						c0.4-0.1,0.9-0.2,1.5-0.2c0.5,0,1,0,1.6,0.1c0.6,0.1,1.1,0.3,1.6,0.6l-0.8,1.4c-0.3-0.2-0.6-0.3-1-0.4
						c-0.4-0.1-0.7-0.1-1.1-0.1c-0.6,0-1,0.1-1.3,0.2c-0.2,0.1-0.3,0.3-0.3,0.6v0.1c0,0.2,0,0.3,0.1,0.4c0,0.1,0.1,0.2,0.2,0.2
						c0.1,0.1,0.3,0.1,0.5,0.2c0.2,0.1,0.5,0.1,0.8,0.2c0.5,0.1,1,0.2,1.4,0.4c0.4,0.1,0.7,0.3,1,0.5c0.3,0.2,0.4,0.5,0.6,0.8
						c0.1,0.3,0.2,0.7,0.2,1.1v0.2c0,0.3-0.1,0.6-0.2,0.9c-0.2,0.3-0.4,0.6-0.7,0.8c-0.3,0.2-0.6,0.4-1.1,0.5
						c-0.4,0.1-0.9,0.2-1.4,0.2c-0.7,0-1.4-0.1-2-0.3c-0.6-0.2-1.2-0.4-1.6-0.8l0.9-1.5c0.4,0.3,0.8,0.5,1.2,0.6
						C236.7,53.6,237.2,53.6,237.7,53.6z"/>
					<path class="st1" d="M245.7,55.3c-0.9,0-1.6-0.3-2.2-0.8c-0.5-0.5-0.8-1.3-0.8-2.4v-5.5h2v5.1c0,0.4,0,0.7,0.1,0.9
						c0.1,0.2,0.2,0.4,0.3,0.6c0.1,0.1,0.3,0.2,0.5,0.3c0.2,0.1,0.4,0.1,0.6,0.1c0.2,0,0.4,0,0.6-0.1c0.2-0.1,0.4-0.2,0.6-0.3
						c0.2-0.2,0.3-0.4,0.4-0.6c0.1-0.3,0.2-0.6,0.2-1v-5h2v8.6h-1.9v-1h0c-0.1,0.2-0.3,0.4-0.5,0.5c-0.2,0.1-0.4,0.3-0.6,0.4
						c-0.2,0.1-0.5,0.2-0.7,0.2C246.2,55.3,246,55.3,245.7,55.3z"/>
					<path class="st1" d="M257.4,48.4c-0.1-0.1-0.3-0.1-0.5-0.1c-0.2,0-0.4,0-0.6,0c-0.3,0-0.5,0-0.8,0.1c-0.2,0.1-0.4,0.2-0.6,0.4
						c-0.2,0.2-0.3,0.4-0.4,0.6c-0.1,0.2-0.1,0.5-0.1,0.8v5.1h-2v-8.6h1.9v1.2h0c0.2-0.4,0.5-0.8,0.9-1c0.4-0.3,0.9-0.4,1.5-0.4
						c0.2,0,0.4,0,0.7,0c0.2,0,0.4,0.1,0.6,0.1L257.4,48.4z"/>
					<path class="st1" d="M264.5,54L264.5,54c-0.3,0.4-0.6,0.7-1,0.9c-0.4,0.2-0.9,0.2-1.4,0.2c-1.1,0-1.9-0.3-2.5-1
						c-0.5-0.6-0.8-1.5-0.8-2.7v-1.4c0-0.6,0.1-1.1,0.2-1.5c0.2-0.5,0.4-0.9,0.7-1.2c0.3-0.3,0.7-0.6,1.1-0.7
						c0.4-0.2,0.9-0.3,1.4-0.3c0.3,0,0.6,0,0.9,0.1c0.3,0.1,0.5,0.1,0.7,0.2c0.2,0.1,0.3,0.2,0.5,0.3c0.1,0.1,0.2,0.2,0.3,0.3h0
						v-0.7h1.9v8.5c0,1.2-0.3,2.1-1,2.7c-0.7,0.6-1.7,0.9-3.1,0.9c-0.5,0-1.1-0.1-1.6-0.3c-0.5-0.2-1-0.4-1.3-0.7l0.9-1.5
						c0.1,0.1,0.2,0.2,0.4,0.2c0.2,0.1,0.3,0.2,0.5,0.2c0.2,0.1,0.4,0.1,0.6,0.2c0.2,0,0.4,0.1,0.6,0.1c0.7,0,1.2-0.1,1.6-0.4
						c0.4-0.3,0.5-0.8,0.5-1.4V54z M260.7,51.2c0,0.7,0.1,1.3,0.4,1.7c0.3,0.4,0.7,0.6,1.3,0.6c0.3,0,0.6-0.1,0.9-0.2
						c0.3-0.1,0.5-0.3,0.6-0.5c0.2-0.2,0.3-0.4,0.4-0.7c0.1-0.3,0.1-0.5,0.1-0.8v-1.6c0-0.2,0-0.4-0.1-0.6c-0.1-0.2-0.2-0.4-0.4-0.5
						c-0.2-0.2-0.4-0.3-0.6-0.4c-0.2-0.1-0.5-0.2-0.9-0.2c-0.6,0-1.1,0.2-1.4,0.6c-0.3,0.4-0.4,1-0.4,1.7V51.2z"/>
					<path class="st1" d="M275.7,54.4c-0.4,0.3-0.9,0.5-1.5,0.7c-0.6,0.2-1.2,0.2-2.1,0.2c-0.5,0-1-0.1-1.4-0.2
						c-0.5-0.1-0.9-0.3-1.3-0.7c-0.4-0.3-0.7-0.7-0.9-1.2c-0.2-0.5-0.3-1.2-0.3-1.9v-0.9c0-0.7,0.1-1.3,0.3-1.8
						c0.2-0.5,0.5-0.9,0.8-1.2c0.4-0.3,0.8-0.6,1.2-0.7c0.5-0.2,1-0.2,1.5-0.2c0.5,0,1,0.1,1.5,0.2c0.5,0.2,0.9,0.4,1.2,0.7
						c0.3,0.3,0.6,0.7,0.8,1.2s0.3,1,0.3,1.6v1.4h-5.7c0,0.7,0.2,1.2,0.5,1.5c0.4,0.3,0.9,0.5,1.6,0.5c0.5,0,1-0.1,1.4-0.2
						c0.4-0.1,0.8-0.3,1.2-0.5L275.7,54.4z M274.1,50.1v-0.4c0-0.2,0-0.4-0.1-0.7c-0.1-0.2-0.2-0.4-0.3-0.5
						c-0.2-0.2-0.4-0.3-0.6-0.4c-0.2-0.1-0.5-0.1-0.9-0.1c-0.7,0-1.1,0.2-1.5,0.5c-0.3,0.3-0.5,0.8-0.5,1.2v0.3H274.1z"/>
					<path class="st1" d="M282.8,48.4c-0.1-0.1-0.3-0.1-0.5-0.1c-0.2,0-0.4,0-0.6,0c-0.3,0-0.5,0-0.8,0.1c-0.2,0.1-0.4,0.2-0.6,0.4
						c-0.2,0.2-0.3,0.4-0.4,0.6c-0.1,0.2-0.1,0.5-0.1,0.8v5.1h-2v-8.6h1.9v1.2h0c0.2-0.4,0.5-0.8,0.9-1c0.4-0.3,0.9-0.4,1.5-0.4
						c0.2,0,0.4,0,0.7,0c0.2,0,0.4,0.1,0.6,0.1L282.8,48.4z"/>
					<path class="st1" d="M286.1,46.6l1.9,6.3h0.1l2-6.3h2.1l-4.4,12.1l-1.8-0.6l1.1-2.8l-3-8.7H286.1z"/>
					<path class="st1" d="M300.8,46.4c0.4,0,0.8,0,1.1,0.1c0.3,0.1,0.6,0.1,0.8,0.2c0.2,0.1,0.5,0.2,0.7,0.3
						c0.2,0.1,0.4,0.2,0.5,0.4l-0.9,1.4c-0.4-0.3-0.7-0.5-1-0.6c-0.3-0.1-0.7-0.2-1.1-0.2c-0.2,0-0.5,0-0.7,0.1
						c-0.2,0.1-0.4,0.2-0.6,0.4c-0.2,0.2-0.3,0.4-0.4,0.7c-0.1,0.3-0.2,0.6-0.2,1v1c0,0.4,0.1,0.8,0.2,1.1c0.1,0.3,0.3,0.5,0.5,0.7
						c0.2,0.2,0.4,0.3,0.6,0.4c0.2,0.1,0.5,0.1,0.7,0.1c0.5,0,1-0.1,1.3-0.2c0.4-0.1,0.7-0.3,1-0.5l0.9,1.4
						c-0.3,0.3-0.7,0.5-1.3,0.7c-0.6,0.2-1.2,0.3-2,0.3c-1.3,0-2.2-0.4-2.9-1c-0.7-0.7-1-1.7-1-2.9v-1.1c0-1.2,0.3-2.2,1-2.9
						C298.7,46.8,299.6,46.4,300.8,46.4z"/>
					<path class="st1" d="M305.6,43.4h2v11.7h-2V43.4z"/>
					<path class="st1" d="M309.9,43.2h2.1v2.1h-2.1V43.2z M309.9,46.6h2v8.6h-2V46.6z"/>
					<path class="st1" d="M318.7,46.4c0.4,0,0.8,0.1,1.1,0.2c0.4,0.1,0.7,0.3,1,0.6c0.3,0.3,0.5,0.6,0.7,1c0.2,0.4,0.2,0.9,0.2,1.5
						v5.6h-2V50c0-1.3-0.5-1.9-1.6-1.9c-0.2,0-0.3,0-0.6,0.1s-0.4,0.1-0.6,0.3c-0.2,0.1-0.4,0.3-0.5,0.6c-0.1,0.3-0.2,0.6-0.2,1v5.1
						h-2v-8.6h1.8v1h0c0.3-0.4,0.7-0.7,1.1-0.9C317.7,46.5,318.2,46.4,318.7,46.4z"/>
					<path class="st1" d="M323.9,43.2h2.1v2.1h-2.1V43.2z M324,46.6h2v8.6h-2V46.6z"/>
					<path class="st1" d="M331.7,46.4c0.4,0,0.8,0,1.1,0.1c0.3,0.1,0.6,0.1,0.8,0.2c0.2,0.1,0.5,0.2,0.7,0.3
						c0.2,0.1,0.4,0.2,0.5,0.4l-0.9,1.4c-0.4-0.3-0.7-0.5-1-0.6c-0.3-0.1-0.7-0.2-1.1-0.2c-0.2,0-0.5,0-0.7,0.1
						c-0.2,0.1-0.4,0.2-0.6,0.4c-0.2,0.2-0.3,0.4-0.4,0.7c-0.1,0.3-0.2,0.6-0.2,1v1c0,0.4,0.1,0.8,0.2,1.1c0.1,0.3,0.3,0.5,0.5,0.7
						c0.2,0.2,0.4,0.3,0.6,0.4c0.2,0.1,0.5,0.1,0.7,0.1c0.5,0,1-0.1,1.3-0.2c0.4-0.1,0.7-0.3,1-0.5l0.9,1.4
						c-0.3,0.3-0.7,0.5-1.3,0.7c-0.6,0.2-1.2,0.3-2,0.3c-1.3,0-2.2-0.4-2.9-1c-0.7-0.7-1-1.7-1-2.9v-1.1c0-1.2,0.3-2.2,1-2.9
						C329.6,46.8,330.5,46.4,331.7,46.4z"/>
				</g>
			</g>
		</g>
		<g>
			<path class="st1" d="M89.9,31.2h-8.8V19.1h2.5v4.1h3.9v-4.1h2.5V31.2z M83.6,29.1h3.9v-3.8h-3.9V29.1z M94.7,24h2.5v2.2h-2.5v9.7
				h-2.5V17.6h2.5V24z"/>
			<path class="st1" d="M114.9,27.6v2H98.1v-2H114.9z M100.4,26.3v-5.2h9.5V20h-9.6v-2h12v5.1h-9.5v1.2h9.9v2H100.4z M102.9,33.4h10
				v2.1h-12.4v-5h2.5V33.4z"/>
			<path class="st1" d="M126.1,19.2v11.9h-8.9V19.2H126.1z M123.6,21.3h-3.9V29h3.9V21.3z M131.4,35.9h-2.5V17.6h2.5V35.9z"/>
			<g>
				<path class="st1" d="M143.4,31.6c-0.8,0-1.6-0.1-2.2-0.4c-0.6-0.3-1.1-0.6-1.5-1.1c-0.4-0.5-0.7-1-0.8-1.7
					c-0.2-0.6-0.3-1.4-0.3-2.1v-2.2c0-0.8,0.1-1.5,0.3-2.1c0.2-0.6,0.5-1.2,0.8-1.7c0.4-0.5,0.9-0.8,1.5-1.1
					c0.6-0.3,1.3-0.4,2.2-0.4c0.8,0,1.6,0.1,2.2,0.4c0.6,0.3,1.1,0.6,1.5,1.1c0.4,0.5,0.7,1,0.8,1.7c0.2,0.6,0.3,1.4,0.3,2.1v2.2
					c0,0.8-0.1,1.5-0.3,2.1c-0.2,0.6-0.5,1.2-0.8,1.7c-0.4,0.5-0.9,0.8-1.5,1.1C145,31.5,144.2,31.6,143.4,31.6z M143.4,21
					c-0.8,0-1.4,0.3-1.8,0.9c-0.4,0.6-0.5,1.4-0.5,2.5V26c0,1.1,0.2,2,0.5,2.5c0.4,0.6,1,0.9,1.8,0.9c0.8,0,1.4-0.3,1.8-0.9
					c0.4-0.6,0.5-1.4,0.5-2.5v-1.6c0-1.1-0.2-2-0.5-2.5C144.8,21.3,144.2,21,143.4,21z M153.2,35.9h-2.5V17.6h2.5V35.9z"/>
				<path class="st1" d="M165.7,31.2h-8.8V19.1h2.5v4.1h3.9v-4.1h2.5V31.2z M159.3,29.1h3.9v-3.8h-3.9V29.1z M171.1,35.9h-2.5V17.6
					h2.5V35.9z"/>
				<path class="st1" d="M178.8,27.9c-0.7,0-1.4-0.1-2-0.3c-0.6-0.2-1.1-0.5-1.5-0.9c-0.4-0.4-0.7-0.8-0.9-1.4
					c-0.2-0.5-0.3-1-0.3-1.6v-1.1c0-0.6,0.1-1.1,0.3-1.6c0.2-0.5,0.5-1,0.9-1.4c0.4-0.4,0.9-0.7,1.5-0.9c0.6-0.2,1.2-0.3,2-0.3
					c0.7,0,1.4,0.1,2,0.3c0.6,0.2,1.1,0.5,1.5,0.9c0.4,0.4,0.7,0.8,0.9,1.4c0.2,0.5,0.3,1,0.3,1.6v1.1c0,0.6-0.1,1.1-0.3,1.6
					c-0.2,0.5-0.5,1-0.9,1.4c-0.4,0.4-0.9,0.7-1.5,0.9C180.2,27.8,179.6,27.9,178.8,27.9z M178.8,20.5c-0.4,0-0.7,0.1-1,0.2
					c-0.3,0.1-0.5,0.3-0.7,0.5c-0.2,0.2-0.4,0.5-0.5,0.7c-0.1,0.3-0.2,0.6-0.2,0.8v0.7c0,0.3,0.1,0.6,0.2,0.9
					c0.1,0.3,0.3,0.5,0.5,0.7c0.2,0.2,0.5,0.4,0.7,0.5c0.3,0.1,0.6,0.2,1,0.2c0.4,0,0.7-0.1,1-0.2c0.3-0.1,0.5-0.3,0.7-0.5
					c0.2-0.2,0.4-0.4,0.5-0.7c0.1-0.3,0.2-0.6,0.2-0.9v-0.7c0-0.3-0.1-0.6-0.2-0.8c-0.1-0.3-0.3-0.5-0.5-0.7
					c-0.2-0.2-0.5-0.4-0.7-0.5C179.5,20.6,179.2,20.5,178.8,20.5z M179.6,33.7h9.4v2.1h-11.9v-6.1h2.5V33.7z M188.8,30.7h-2.5v-13
					h2.5V30.7z"/>
				<path class="st1" d="M208.2,29.5v2.1h-7.1v4.6h-2.5v-4.6h-7.1v-2.1H208.2z M201.1,19.4h5.6v2.1H193v-2.1h5.6v-2.1h2.5V19.4z
					 M199.8,28.7c-0.8,0-1.6-0.1-2.3-0.2c-0.7-0.1-1.3-0.3-1.8-0.6c-0.5-0.3-0.9-0.6-1.1-0.9c-0.3-0.4-0.4-0.8-0.4-1.3v-0.6
					c0-0.5,0.1-0.9,0.4-1.3c0.3-0.4,0.7-0.7,1.1-0.9c0.5-0.3,1.1-0.5,1.8-0.6c0.7-0.1,1.5-0.2,2.3-0.2c0.8,0,1.6,0.1,2.3,0.2
					c0.7,0.1,1.3,0.3,1.8,0.6c0.5,0.3,0.9,0.6,1.2,0.9c0.3,0.4,0.4,0.8,0.4,1.3v0.6c0,0.5-0.1,0.9-0.4,1.3c-0.3,0.4-0.7,0.7-1.2,0.9
					c-0.5,0.3-1.1,0.4-1.8,0.6C201.4,28.7,200.7,28.7,199.8,28.7z M199.8,24.2c-1,0-1.8,0.1-2.4,0.4c-0.5,0.2-0.8,0.5-0.8,0.8v0.3
					c0,0.3,0.3,0.6,0.8,0.8c0.5,0.2,1.3,0.4,2.4,0.4c1,0,1.8-0.1,2.4-0.4c0.5-0.2,0.8-0.5,0.8-0.8v-0.3c0-0.3-0.3-0.6-0.8-0.8
					C201.7,24.3,200.9,24.2,199.8,24.2z"/>
				<path class="st1" d="M209.4,29.8h3.1v-5.2h2.5v5.2c1.3,0,2.4-0.1,3.3-0.1c0.9,0,1.7-0.1,2.4-0.2l0.2,2.1
					c-0.5,0.1-1.2,0.1-1.9,0.2c-0.7,0-1.5,0.1-2.4,0.1c-0.9,0-2,0-3.2,0.1c-1.2,0-2.5,0-4,0V29.8z M219.5,19.3v2.9
					c0,0.4,0,0.8,0,1.3c0,0.5,0,0.9-0.1,1.4c0,0.5-0.1,1-0.1,1.4c-0.1,0.5-0.1,0.9-0.2,1.4l-2.4-0.3c0.2-0.9,0.3-1.8,0.3-2.6
					c0.1-0.8,0.1-1.6,0.1-2.3v-1.1h-6.8v-2.1H219.5z M224.1,24.2h2.5v2.2h-2.5v9.6h-2.5V17.6h2.5V24.2z"/>
			</g>
		</g>
		<g>
			<path class="st1" d="M255.7,24.3c-0.1,0.2-0.2,0.3-0.4,0.5c-0.2,0.2-0.5,0.5-0.9,0.8c-0.5,0.4-0.9,0.8-1.4,1.2
				c-0.5,0.4-1,0.8-1.6,1.2l-1.5-1.8c0.6-0.4,1.1-0.8,1.6-1.2c0.5-0.4,0.9-0.8,1.4-1.2c0.4-0.4,0.7-0.8,1-1.3c0.2-0.5,0.4-1,0.4-1.7
				v-2.8h2.5v2.7c0,0.3,0,0.6,0,0.9c0,0.3,0.1,0.5,0.2,0.7c0.1,0.2,0.2,0.4,0.4,0.6c0.2,0.2,0.4,0.4,0.6,0.6c0.4,0.3,0.8,0.7,1.3,1
				c0.5,0.4,1,0.7,1.5,1.1l-1.4,1.7c-0.5-0.3-0.9-0.6-1.3-0.9c-0.4-0.3-0.8-0.6-1.2-0.9c-0.3-0.3-0.6-0.5-0.9-0.7
				C255.9,24.6,255.8,24.4,255.7,24.3L255.7,24.3z M259.6,36.2c-0.8,0-1.6-0.1-2.3-0.2c-0.7-0.2-1.3-0.4-1.8-0.7
				c-0.5-0.3-0.9-0.7-1.2-1.1c-0.3-0.4-0.4-0.9-0.4-1.5v-0.9c0-0.6,0.1-1,0.4-1.5c0.3-0.4,0.7-0.8,1.2-1.1c0.5-0.3,1.1-0.5,1.8-0.7
				c0.7-0.2,1.4-0.2,2.3-0.2c0.8,0,1.6,0.1,2.3,0.2c0.7,0.2,1.3,0.4,1.8,0.7c0.5,0.3,0.9,0.7,1.2,1.1c0.3,0.4,0.4,0.9,0.4,1.5v0.9
				c0,0.6-0.1,1-0.4,1.5c-0.3,0.4-0.7,0.8-1.2,1.1c-0.5,0.3-1.1,0.5-1.8,0.7C261.2,36.1,260.5,36.2,259.6,36.2z M259.6,30.3
				c-0.4,0-0.8,0-1.2,0.1c-0.4,0.1-0.7,0.2-1,0.4c-0.3,0.2-0.5,0.3-0.7,0.5c-0.2,0.2-0.3,0.4-0.3,0.6v0.5c0,0.2,0.1,0.4,0.3,0.6
				c0.2,0.2,0.4,0.4,0.7,0.5c0.3,0.2,0.6,0.3,1,0.4c0.4,0.1,0.8,0.1,1.2,0.1c0.4,0,0.8,0,1.2-0.1c0.4-0.1,0.7-0.2,1-0.4
				c0.3-0.2,0.5-0.3,0.7-0.5c0.2-0.2,0.3-0.4,0.3-0.6V32c0-0.2-0.1-0.4-0.3-0.6c-0.2-0.2-0.4-0.4-0.7-0.5c-0.3-0.2-0.6-0.3-1-0.4
				C260.5,30.3,260.1,30.3,259.6,30.3z M262.8,23.1h-3.2V21h3.2v-3.7h2.5v10.8h-2.5V23.1z"/>
			<path class="st1" d="M274.5,19.2h4.1v2.1h-10.5v-2.1h4v-2h2.5V19.2z M273.3,28.7c-0.7,0-1.3-0.1-1.8-0.2c-0.5-0.2-1-0.4-1.4-0.7
				c-0.4-0.3-0.6-0.6-0.8-1c-0.2-0.4-0.3-0.8-0.3-1.2V25c0-0.4,0.1-0.8,0.3-1.2c0.2-0.4,0.5-0.7,0.8-1c0.4-0.3,0.8-0.5,1.4-0.7
				c0.5-0.2,1.1-0.2,1.8-0.2s1.3,0.1,1.8,0.2c0.5,0.2,1,0.4,1.4,0.7c0.4,0.3,0.6,0.6,0.8,1c0.2,0.4,0.3,0.8,0.3,1.2v0.6
				c0,0.4-0.1,0.8-0.3,1.2c-0.2,0.4-0.5,0.7-0.8,1c-0.4,0.3-0.8,0.5-1.4,0.7C274.6,28.6,274,28.7,273.3,28.7z M273.3,23.8
				c-0.7,0-1.2,0.1-1.5,0.4c-0.3,0.3-0.5,0.6-0.5,0.9v0.4c0,0.3,0.2,0.6,0.5,0.9c0.3,0.3,0.8,0.4,1.5,0.4s1.2-0.1,1.5-0.4
				c0.3-0.3,0.5-0.6,0.5-0.9v-0.4c0-0.3-0.2-0.6-0.5-0.9C274.5,24,274,23.8,273.3,23.8z M277.5,36.3c-0.9,0-1.6-0.1-2.4-0.2
				c-0.7-0.2-1.3-0.4-1.8-0.6c-0.5-0.3-0.9-0.6-1.2-1c-0.3-0.4-0.4-0.8-0.4-1.3v-0.7c0-0.5,0.1-0.9,0.4-1.3c0.3-0.4,0.7-0.7,1.2-1
				c0.5-0.3,1.1-0.5,1.8-0.6c0.7-0.2,1.5-0.2,2.4-0.2c0.9,0,1.6,0.1,2.4,0.2c0.7,0.2,1.3,0.4,1.8,0.6c0.5,0.3,0.9,0.6,1.2,1
				c0.3,0.4,0.4,0.8,0.4,1.3v0.7c0,0.5-0.1,0.9-0.4,1.3c-0.3,0.4-0.7,0.7-1.2,1c-0.5,0.3-1.1,0.5-1.8,0.6
				C279.2,36.2,278.4,36.3,277.5,36.3z M277.5,31.3c-0.5,0-0.9,0-1.3,0.1c-0.4,0.1-0.8,0.2-1.1,0.3c-0.3,0.1-0.5,0.3-0.7,0.4
				c-0.2,0.2-0.2,0.3-0.2,0.5v0.3c0,0.2,0.1,0.4,0.2,0.5c0.2,0.2,0.4,0.3,0.7,0.4c0.3,0.1,0.6,0.2,1.1,0.3c0.4,0.1,0.9,0.1,1.3,0.1
				c0.5,0,0.9,0,1.3-0.1c0.4-0.1,0.8-0.2,1.1-0.3c0.3-0.1,0.5-0.3,0.7-0.4c0.2-0.2,0.2-0.3,0.2-0.5v-0.3c0-0.2-0.1-0.4-0.2-0.5
				c-0.2-0.2-0.4-0.3-0.7-0.4c-0.3-0.1-0.6-0.2-1.1-0.3C278.4,31.3,278,31.3,277.5,31.3z M283.2,29h-2.5v-1.5h-2.2v-2.1h2.2V24h-2.2
				v-2.1h2.2v-4.4h2.5V29z"/>
			<path class="st1" d="M286.3,30.1c0.8,0,1.6,0,2.4,0c0.7,0,1.4,0,2.1,0v-2.7c-0.6-0.1-1.1-0.3-1.6-0.5c-0.5-0.3-0.8-0.6-1.2-0.9
				c-0.3-0.4-0.6-0.7-0.7-1.2c-0.2-0.4-0.3-0.9-0.3-1.3v-0.8c0-0.6,0.1-1.1,0.4-1.6c0.2-0.5,0.6-0.9,1-1.3c0.4-0.4,1-0.7,1.6-0.9
				c0.6-0.2,1.3-0.3,2-0.3c0.7,0,1.4,0.1,2,0.3c0.6,0.2,1.1,0.5,1.6,0.9c0.4,0.4,0.8,0.8,1,1.3c0.2,0.5,0.4,1,0.4,1.6v0.8
				c0,0.5-0.1,0.9-0.3,1.3c-0.2,0.4-0.4,0.8-0.7,1.2c-0.3,0.4-0.7,0.7-1.2,0.9c-0.5,0.2-1,0.4-1.5,0.6v2.6c1,0,1.9-0.1,2.7-0.1
				c0.8,0,1.5-0.1,2.1-0.2l0.2,2.1c-0.6,0.1-1.2,0.1-2,0.2c-0.7,0-1.6,0.1-2.6,0.1c-1,0-2.1,0-3.3,0.1c-1.2,0-2.6,0-4.1,0V30.1z
				 M291.9,20.7c-0.4,0-0.8,0.1-1.1,0.2c-0.3,0.1-0.6,0.3-0.8,0.5c-0.2,0.2-0.4,0.4-0.5,0.7c-0.1,0.3-0.2,0.5-0.2,0.8v0.5
				c0,0.3,0.1,0.5,0.2,0.8c0.1,0.3,0.3,0.5,0.5,0.7c0.2,0.2,0.5,0.4,0.8,0.5c0.3,0.1,0.7,0.2,1.1,0.2c0.4,0,0.8-0.1,1.1-0.2
				c0.3-0.1,0.6-0.3,0.8-0.5c0.2-0.2,0.4-0.4,0.5-0.7c0.1-0.3,0.2-0.5,0.2-0.8v-0.5c0-0.3-0.1-0.5-0.2-0.8c-0.1-0.3-0.3-0.5-0.5-0.7
				c-0.2-0.2-0.5-0.4-0.8-0.5C292.7,20.8,292.3,20.7,291.9,20.7z M301.4,35.9h-2.5V17.6h2.5V35.9z"/>
			<path class="st1" d="M303.9,29.8h3.1v-5.2h2.5v5.2c1.3,0,2.4-0.1,3.3-0.1c0.9,0,1.7-0.1,2.4-0.2l0.2,2.1
				c-0.5,0.1-1.2,0.1-1.9,0.2c-0.7,0-1.5,0.1-2.4,0.1c-0.9,0-2,0-3.2,0.1c-1.2,0-2.5,0-4,0V29.8z M314,19.3v2.9c0,0.4,0,0.8,0,1.3
				s0,0.9-0.1,1.4c0,0.5-0.1,1-0.1,1.4c-0.1,0.5-0.1,0.9-0.2,1.4l-2.4-0.3c0.2-0.9,0.3-1.8,0.3-2.6c0.1-0.8,0.1-1.6,0.1-2.3v-1.1
				h-6.8v-2.1H314z M318.5,24.2h2.5v2.2h-2.5v9.6h-2.5V17.6h2.5V24.2z"/>
		</g>
		<g>
			<path class="st1" d="M252.3,6.1h4.6v1h-1.6v0.7c0,0.1,0,0.2,0,0.3c0,0.1,0,0.2,0.1,0.3c0,0.1,0.1,0.2,0.2,0.3
				c0.1,0.1,0.2,0.2,0.3,0.3c0.2,0.2,0.4,0.3,0.6,0.5c0.2,0.2,0.5,0.3,0.7,0.5l-0.6,0.9c-0.2-0.1-0.4-0.3-0.6-0.4
				c-0.2-0.1-0.4-0.3-0.6-0.4c-0.2-0.1-0.4-0.3-0.5-0.4c-0.1-0.1-0.2-0.2-0.2-0.2h0c0,0.1-0.1,0.1-0.2,0.3c-0.1,0.1-0.3,0.3-0.5,0.4
				c-0.2,0.2-0.4,0.3-0.6,0.5c-0.2,0.2-0.4,0.3-0.7,0.5l-0.7-0.9c0.3-0.2,0.6-0.4,0.9-0.6c0.3-0.2,0.5-0.4,0.7-0.6
				c0.2-0.1,0.3-0.3,0.4-0.5C254,8.2,254,8,254,7.8V7.1h-1.7V6.1z M254.7,13.2h4.5v1h-5.7v-3h1.2V13.2z M259.1,11.8h-1.2V5.5h1.2
				V11.8z"/>
			<path class="st1" d="M265.8,11v1.3h2.1v1h-8.1v-1h2.2V11H261V8.1h4.7V7.2h-4.7v-1h5.9v2.9h-4.7v0.9h4.9v1H265.8z M263.3,12.2h1.4
				V11h-1.4V12.2z"/>
			<path class="st1" d="M268.1,11.4h1.5V8.9h1.2v2.5c0.6,0,1.2,0,1.6-0.1c0.4,0,0.8-0.1,1.2-0.1l0.1,1c-0.3,0-0.6,0.1-0.9,0.1
				c-0.3,0-0.7,0-1.2,0.1c-0.4,0-1,0-1.5,0c-0.6,0-1.2,0-1.9,0V11.4z M272.9,6.4v1.4c0,0.2,0,0.4,0,0.6c0,0.2,0,0.5,0,0.7
				c0,0.2,0,0.5-0.1,0.7c0,0.2-0.1,0.4-0.1,0.7l-1.2-0.1c0.1-0.4,0.1-0.8,0.2-1.2c0-0.4,0-0.8,0-1.1V7.4h-3.3v-1H272.9z M275.1,8.7
				h1.2v1h-1.2v4.6h-1.2V5.5h1.2V8.7z"/>
			<path class="st1" d="M280.8,9.1v0.8h3.4v1h-8.1v-1h3.4V9.1h-2.3V5.8h5.8v3.2H280.8z M277.2,11.5h5.9v3h-1.2v-2h-4.7V11.5z
				 M278.5,8.1h3.4V6.8h-3.4V8.1z"/>
		</g>
		<rect x="239.3" y="15.2" class="st1" width="1.8" height="23.2"/>
	</g>
</g>
</svg>
