<?xml version="1.0" encoding="utf-8"?>
<!-- Generator: Adobe Illustrator 25.2.1, SVG Export Plug-In . SVG Version: 6.00 Build 0)  -->
<svg version="1.1" id="레이어_1" xmlns="http://www.w3.org/2000/svg" xmlns:xlink="http://www.w3.org/1999/xlink" x="0px"
	 y="0px" viewBox="0 0 20 20" style="enable-background:new 0 0 20 20;" xml:space="preserve">
<style type="text/css">
	.st0{fill:#4B82C1;}
</style>
<g>
	<path class="st0" d="M13.7,11.6L12.9,12c0.4,0.6,0.6,1.2,0.6,1.7c0.1,0.5,0.1,0.6,0.1,1c0,1.7-1.4,3.2-3.2,3.2H4.9v1.9h5.8
		c1.9-0.1,3.1-1,3.8-1.9c0.8-1,0.9-2,0.9-2c0.6-3.1-0.9-4.7-0.9-4.7L13.7,11.6z"/>
	<path class="st0" d="M6.4,7.9l-4-2.1L1.9,5.6l-0.1,0L1.7,5.5L1.1,5.2c-0.4-0.2-0.7,0-0.7,0C0.2,5.4,0.2,5.8,0.2,5.8v0.3v0.8v6.5
		v0.3v1.1v0.4v0.6h1.9v-0.6v-1.6v-1.2v-0.9V10V9V8.9V8.8V8.5V8.4v0V8.3c0-0.1,0-0.2,0.1-0.3c0,0,0.1,0,0.3,0.1L3,8.3l0.1,0l0.3,0.2
		l0.2,0.1l1.3,0.7l1.7,0.9l0.2,0.1V10V8.5V8.1L6.4,7.9z"/>
	<path class="st0" d="M19.5,5.2c0,0-0.2-0.2-0.6,0l-8.7,4.4c0,0-0.1,0.1-0.2,0.1c-0.1,0-0.2-0.1-0.2-0.1L8,8.7V10v0.7v0.1l1.3,0.7
		c0.2,0.1,0.4,0.2,0.8,0.2c0.1,0,0.3,0,0.4-0.1c0.1,0,0.2-0.1,0.2-0.1l0.1-0.1l1.4-0.7l1.2-0.6l0,0l2.4-1.2l0.6-0.3l0.2-0.1l0.3-0.1
		l0.1,0l0.1,0l0.4-0.2c0.2-0.1,0.3-0.1,0.3-0.1c0.1,0,0.1,0.2,0.1,0.3v0.1v0v0.1v0.3v0.1V9v0.8V10v0.4v1.1v0.9v1.2v1.6v0.6h1.9v-0.6
		v-0.4v-1.1v-0.3v-2.9V9.8V6.9V6.8V6.1V5.8C19.8,5.8,19.8,5.4,19.5,5.2z"/>
	<path class="st0" d="M15.6,5c0-0.1,0-0.1,0-0.2s0-0.1,0-0.1c-0.2-2.5-2.3-4.5-4.9-4.5H8.4H6.9H6.2c-0.7,0-1.3,0.6-1.3,1.3v0.6V3
		v2.5v1.6v2.2V10v1.5v1v0.8v2.8h0.7h0.1c0.2,0,0.5,0,0.8-0.1c0.3-0.1,0.3-0.5,0.3-0.6v0v-0.8v-0.1v-1v-1v-1v-0.2v-1V8.1V7.6V5.5V3
		V2.1h1.5h2.1c1.7,0,3.1,1.3,3.1,3c0,0.1,0,0.3,0,0.4c-0.1,1.9-1.2,2.9-1.8,3.2l3.7-1.9C15.6,6.2,15.6,5.4,15.6,5z"/>
</g>
</svg>
